<svg xmlns="http://www.w3.org/2000/svg" style="display: none;">
  <symbol id="icon-github" viewBox="0 0 24 24">
    <path d="M12 .297c-6.63 0-12 5.373-12 12 0 5.303 3.438 9.8 8.205 11.385.6.113.82-.258.82-.577 0-.285-.01-1.04-.015-2.04-3.338.724-4.042-1.61-4.042-1.61C4.422 18.07 3.633 17.7 3.633 17.7c-1.087-.744.084-.729.084-.729 1.205.084 1.838 1.236 1.838 1.236 1.07 1.835 2.809 1.305 3.495.998.108-.776.417-1.305.76-1.605-2.665-.3-5.466-1.332-5.466-5.93 0-1.31.465-2.38 1.235-3.22-.135-.303-.54-1.523.105-3.176 0 0 1.005-.322 3.3 1.23.96-.267 1.98-.399 3-.405 1.02.006 2.04.138 3 .405 2.28-1.552 3.285-1.23 3.285-1.23.645 1.653.24 2.873.12 3.176.765.84 1.23 1.91 1.23 3.22 0 4.61-2.805 5.625-5.475 5.92.42.36.81 1.096.81 2.22 0 1.606-.015 2.896-.015 3.286 0 .315.21.69.825.57C20.565 22.092 24 17.592 24 12.297c0-6.627-5.373-12-12-12"/>
  </symbol>
  <symbol id="icon-patreon" viewBox="0 0 24 24">
    <path d="M0 .48v23.04h4.22V.48zm15.385 0c-4.764 0-8.641 3.88-8.641 8.65 0 4.755 3.877 8.623 8.641 8.623 4.75 0 8.615-3.868 8.615-8.623C24 4.36 20.136.48 15.385.48z"/>
  </symbol>
  <symbol id="icon-paypal" viewBox="0 0 24 24">
    <path d="M7.076 21.337H2.47a.641.641 0 0 1-.633-.74L4.944.901C5.026.382 5.474 0 5.998 0h7.46c2.57 0 4.578.543 5.69 1.81 1.01 1.15 1.304 2.42 1.012 4.287-.023.143-.047.288-.077.437-.983 5.05-4.349 6.797-8.647 6.797h-2.19c-.524 0-.968.382-1.05.9l-1.12 7.106zm14.146-14.42a3.35 3.35 0 0 0-.607-.541c-.013.076-.026.175-.041.254-.93 4.778-4.005 7.201-9.138 7.201h-2.19a.563.563 0 0 0-.556.479l-1.187 7.527h-.506l-.24 1.516a.56.56 0 0 0 .554.647h3.882c.46 0 .85-.334.922-.788.06-.26.76-4.852.816-5.09a.932.932 0 0 1 .923-.788h.58c3.76 0 6.705-1.528 7.565-5.946.36-1.847.174-3.388-.777-4.471z"/>
  </symbol>
  <symbol id="icon-bitcoin" viewBox="0 0 24 24">
    <path d="M23.638 14.904c-1.602 6.43-8.113 10.34-14.542 8.736C2.67 22.05-1.244 15.525.362 9.105 1.962 2.67 8.475-1.243 14.9.358c6.43 1.605 10.342 8.115 8.738 14.548v-.002zm-6.35-4.613c.24-1.59-.974-2.45-2.64-3.03l.54-2.153-1.315-.33-.525 2.107c-.345-.087-.705-.167-1.064-.25l.526-2.127-1.32-.33-.54 2.165c-.285-.067-.565-.132-.84-.2l-1.815-.45-.35 1.407s.975.225.955.236c.535.136.63.486.615.766l-1.477 5.92c-.075.166-.24.406-.614.314.015.02-.96-.24-.96-.24l-.66 1.51 1.71.426.93.242-.54 2.19 1.32.327.54-2.17c.36.1.705.19 1.05.273l-.51 2.154 1.32.33.545-2.19c2.24.427 3.93.257 4.64-1.774.57-1.637-.03-2.58-1.217-3.196.854-.193 1.5-.76 1.68-1.93h.01zm-3.01 4.22c-.404 1.64-3.157.75-4.05.53l.72-2.9c.896.23 3.757.67 3.33 2.37zm.41-4.24c-.37 1.49-2.662.735-3.405.55l.654-2.64c.744.18 3.137.524 2.75 2.084v.006z"/>
</symbol>
  <symbol id="icon-ethereum" viewBox="0 0 24 24">
    <path d="M11.944 17.97L4.58 13.62 11.943 24l7.37-10.38-7.372 4.35h.003zM12.056 0L4.69 12.223l7.365 4.354 7.365-4.35L12.056 0z"/>
  </symbol>
  <symbol id="icon-litecoin" viewBox="0 0 24 24">
    <path d="M12 0a12 12 0 1012 12A12 12 0 0012 0zm-.2617 3.6777h2.584a.3425.3425 0 01.33.4356l-2.0312 6.918 1.9062-.582-.4082 1.3847-1.9238.5801-.8848 3.0073h6.2441a.3425.3425 0 01.33.4365l-.582 1.9792a.4441.4441 0 01-.4238.3097H5.7793l1.2754-4.3224-1.9043.582.4219-1.3866 1.9219-.582 2.2637-7.7048a.4431.4431 0 01.4229-.3095z"/>
  </symbol>
  <symbol id="icon-monero" viewBox="0 0 24 24">
    <path d="M12 0C5.365 0 0 5.373 0 12.015c0 1.335.228 2.607.618 3.81h3.577V5.729L12 13.545l7.805-7.815v10.095h3.577c.389-1.203.618-2.475.618-3.81C24 5.375 18.635 0 12 0zm-1.788 15.307l-3.417-3.421v6.351H1.758C3.87 21.689 7.678 24 12 24s8.162-2.311 10.245-5.764h-5.04v-6.351l-3.386 3.421-1.788 1.79-1.819-1.79z"/>
  </symbol>
  <symbol id="icon-kofi" viewBox="0 0 24 24">
    <path d="M23.881 8.948c-.773-4.085-4.859-4.593-4.859-4.593H.723c-.604 0-.679.798-.679.798s-.082 7.324-.022 11.822c.164 2.424 2.586 2.672 2.586 2.672s8.267-.023 11.966-.049c2.438-.426 2.683-2.566 2.658-3.734 4.352.24 7.422-2.831 6.649-6.916zm-11.062 3.511c-1.246 1.453-4.011 3.976-4.011 3.976s-.121.119-.31.023c-.076-.057-.108-.09-.108-.09-.443-.441-3.368-3.049-4.034-3.954-.709-.965-1.041-2.7-.091-3.71.951-1.01 3.005-1.086 4.363.407 0 0 1.565-1.782 3.468-.963 1.904.82 1.832 3.011.723 4.311zm6.173.478c-.928.116-1.682.028-1.682.028V7.284h1.77s1.971.551 1.971 2.638c0 1.913-.985 2.667-2.059 3.015z"/>
  </symbol>
  <symbol id="icon-liberapay" viewBox="0 0 24 24">
    <path d="M2.32 0A2.321 2.321 0 0 0 0 2.32v19.36A2.321 2.321 0 0 0 2.32 24h19.36A2.32 2.32 0 0 0 24 21.68V2.32A2.32 2.32 0 0 0 21.68 0zm9.208 3.98l-2.27 9.405a2.953 2.953 0 0 0-.073.539.853.853 0 0 0 .09.432.7.7 0 0 0 .334.302c.157.077.378.126.661.147l-.49 2.008c-.772 0-1.38-.1-1.82-.3-.441-.203-.757-.477-.947-.826a2.391 2.391 0 0 1-.278-1.2c.005-.452.068-.933.188-1.445l2.074-8.67zm3.9 3.888c.61 0 1.135.092 1.576.277.44.185.802.438 1.085.76.283.32.493.696.629 1.126.136.43.204.89.204 1.379v.001c0 .794-.13 1.52-.392 2.179a5.16 5.16 0 0 1-1.086 1.706 4.84 4.84 0 0 1-1.665 1.118c-.648.267-1.353.4-2.114.4-.37 0-.74-.033-1.11-.098l-.735 2.956H9.403l2.71-11.298c.435-.13.934-.248 1.494-.351a10.045 10.045 0 0 1 1.821-.155zm-.31 2.041a4.67 4.67 0 0 0-.98.098l-1.143 4.752c.185.044.413.065.685.065.425 0 .812-.079 1.16-.237a2.556 2.556 0 0 0 .89-.661c.244-.283.435-.623.571-1.02a4.03 4.03 0 0 0 .204-1.315c0-.468-.104-.865-.31-1.192-.207-.326-.566-.49-1.077-.49z"/>
  </symbol>
  <symbol id="icon-wise" viewBox="0 0 24 24">
    <path d="M6.488 7.469 0 15.05h11.585l1.301-3.576H7.922l3.033-3.507.01-.092L8.993 4.48h8.873l-6.878 18.925h4.706L24 .595H2.543l3.945 6.874Z"/>
  </symbol>
  <symbol id="icon-stripe" viewBox="0 0 24 24">
    <path d="M13.976 9.15c-2.172-.806-3.356-1.426-3.356-2.409 0-.831.683-1.305 1.901-1.305 2.227 0 4.515.858 6.09 1.631l.89-5.494C18.252.975 15.697 0 12.165 0 9.667 0 7.589.654 6.104 1.872 4.56 3.147 3.757 4.992 3.757 7.218c0 4.039 2.467 5.76 6.476 7.219 2.585.92 3.445 1.574 3.445 2.583 0 .98-.84 1.545-2.354 1.545-1.875 0-4.965-.921-6.99-2.109l-.9 5.555C5.175 22.99 8.385 24 11.714 24c2.641 0 4.843-.624 6.328-1.813 1.664-1.305 2.525-3.236 2.525-5.732 0-4.128-2.524-5.851-6.594-7.305h.003z"/>
  </symbol>
  <symbol id="icon-bank-transfer" viewBox="0 0 64 64">
    <g><circle cx="32" cy="14" r="3"/><path d="M4 25h56a4 4 0 0 0 2.077-7.419l-28-17a3.997 3.997 0 0 0-4.153 0l-28 17a3.998 3.998 0 0 0-1.775 4.497A3.998 3.998 0 0 0 4 25zM32 9c2.762 0 5 2.238 5 5s-2.238 5-5 5-5-2.238-5-5 2.238-5 5-5zM34 27h8v25h-8zM46 27h8v25h-8zM22 27h8v25h-8zM10 27h8v25h-8zM4 58h56a4 4 0 0 0-4-4H8a4 4 0 0 0-4 4zM63.445 60H.555A3.958 3.958 0 0 0 0 62v2h64v-2c0-.732-.211-1.409-.555-2z"/></g>
  </symbol>
  <symbol id="icon-tether" viewBox="0 0 24 24">
    <path d="M18.7538 10.5176c0 .6251-2.2379 1.1483-5.2381 1.2812l.0028.0007c-.0848.0064-.5233.0325-1.5012.0325-.7778 0-1.33-.0233-1.5237-.0325-3.0059-.1322-5.2495-.6555-5.2495-1.2819s2.2436-1.149 5.2495-1.2834v2.0442c.1965.0142.7594.0474 1.5372.0474.9334 0 1.4008-.0389 1.4849-.0466V9.2356c2.9994.1337 5.2381.657 5.2381 1.282zm5.19.5466L12.1248 22.389a.1803.1803 0 0 1-.2496 0L.0562 11.0635a.1781.1781 0 0 1-.0382-.2079l4.3762-9.1921a.1767.1767 0 0 1 .1626-.1026h14.8878a.1768.1768 0 0 1 .1612.1032l4.3762 9.1922a.1782.1782 0 0 1-.0382.2079zm-4.478-.4038c0-.8068-2.5515-1.4799-5.9473-1.6369V7.195h4.186V4.4055H6.3076V7.195h4.1852v1.8286c-3.4018.1562-5.9601.83-5.9601 1.6376 0 .8075 2.5583 1.4806 5.9601 1.6376v5.8618h3.025v-5.8639c3.394-.1563 5.948-.8295 5.948-1.6363z"/>
  </symbol>
  <symbol id="icon-stellar" viewBox="0 0 24 24">
    <path d="M12.283 1.851A10.154 10.154 0 001.846 12.002c0 .259.01.516.03.773A1.847 1.847 0 01.872 14.56L0 15.005v2.074l2.568-1.309.832-.424.82-.417 14.71-7.496 1.653-.842L24 4.85V2.776l-3.387 1.728-2.89 1.473-13.955 7.108a8.376 8.376 0 01-.07-1.086 8.313 8.313 0 0112.366-7.247l1.654-.843.247-.126a10.154 10.154 0 00-5.682-1.932zM24 6.925L5.055 16.571l-1.653.844L0 19.15v2.072L3.378 19.5l2.89-1.473 13.97-7.117a8.474 8.474 0 01.07 1.092A8.313 8.313 0 017.93 19.248l-.101.054-1.793.914a10.154 10.154 0 0016.119-8.214c0-.26-.01-.522-.03-.78a1.848 1.848 0 011.003-1.785L24 8.992Z"/>
  </symbol>
  <symbol id="icon-sepa" viewBox="0 0 24 24">
    <path d="M12.553 8.72v6.56h1.766v-1.694h1.052l.293-.01c.579-.009.907-.02.984-.033.656-.086 1.09-.418 1.3-.994.106-.29.16-.769.16-1.434 0-.553-.049-.968-.145-1.243-.185-.524-.548-.871-1.09-1.04-.236-.074-.58-.111-1.031-.111zm6.79 0l-1.971 6.56h1.826l.317-1.134h2.36l.337 1.133H24l-1.995-6.558zm-9.339.031a3.36 3.36 0 0 0-1.888.574 3.272 3.272 0 0 0-1.199 1.455h-.742l-.464.996h.969a3.17 3.17 0 0 0 .004.526h-.467l-.465.995H6.94a3.333 3.333 0 0 0 3.064 1.973 3.37 3.37 0 0 0 1.876-.564l.013-.009v-1.241l-.05.056a2.293 2.293 0 0 1-3.618-.215h2.396l.465-.995H7.838a2.356 2.356 0 0 1-.012-.526h3.505l.008-.017.438-.939.019-.04H8.154a2.308 2.308 0 0 1 1.963-1.108c.694 0 1.344.31 1.783.85l.028.035.409-.875-.015-.014a3.359 3.359 0 0 0-2.318-.917zm-7.2.004c-.439 0-.837.016-1.196.048-.43.034-.785.15-1.062.348a1.082 1.082 0 0 0-.41.565c-.086.248-.128.578-.128.99 0 .54.079.943.236 1.21.179.314.537.52 1.074.621.205.035.57.071 1.094.109.654.044 1.02.078 1.098.103.211.063.316.239.316.528a1.1 1.1 0 0 1-.037.315.48.48 0 0 1-.298.287c-.084.032-.281.048-.589.048h-.604a.963.963 0 0 1-.41-.09c-.164-.081-.246-.264-.246-.549v-.136H0c0 .533.04.915.118 1.143.142.412.435.685.879.82.362.11 1.003.164 1.922.164.551 0 .96-.025 1.228-.075.64-.12 1.05-.404 1.233-.853.101-.245.151-.632.151-1.16 0-.23-.01-.435-.033-.617a1.186 1.186 0 0 0-.355-.74c-.252-.242-.66-.392-1.22-.448-.177-.019-.62-.052-1.33-.1l-.331-.023a.768.768 0 0 1-.35-.094c-.124-.075-.185-.233-.185-.471 0-.264.07-.435.208-.514.139-.079.423-.118.852-.118.441 0 .71.068.808.205.063.092.095.272.095.542h1.642c.01-.145.016-.253.016-.326 0-.884-.357-1.421-1.072-1.613-.293-.079-.784-.119-1.473-.119zm17.894 1.27l.827 2.843h-1.63zm-6.38.13h1.116c.18 0 .294.004.342.01.24.042.393.157.456.345.045.134.067.34.067.617a2.9 2.9 0 0 1-.033.512c-.035.172-.105.287-.21.344-.076.042-.288.069-.637.082h-1.1Z"/>
  </symbol>
  <symbol id="icon-opencollective" viewBox="0 0 24 24">
    <path d="M12 0C5.373 0 0 5.373 0 12s5.373 12 12 12c2.54 0 4.894-.79 6.834-2.135l-3.107-3.109a7.715 7.715 0 1 1 0-13.512l3.107-3.109A11.943 11.943 0 0 0 12 0zm9.865 5.166l-3.109 3.107A7.67 7.67 0 0 1 19.715 12a7.682 7.682 0 0 1-.959 3.727l3.109 3.107A11.943 11.943 0 0 0 24 12c0-2.54-.79-4.894-2.135-6.834z"/>
  </symbol>
  <symbol id="icon-visa" viewBox="0 0 24 24">
    <path d="M9.112 8.262L5.97 15.758H3.92L2.374 9.775c-.094-.368-.175-.503-.461-.658C1.447 8.864.677 8.627 0 8.479l.046-.217h3.3a.904.904 0 01.894.764l.817 4.338 2.018-5.102zm8.033 5.049c.008-1.979-2.736-2.088-2.717-2.972.006-.269.262-.555.822-.628a3.66 3.66 0 011.913.336l.34-1.59a5.207 5.207 0 00-1.814-.333c-1.917 0-3.266 1.02-3.278 2.479-.012 1.079.963 1.68 1.698 2.04.756.367 1.01.603 1.006.931-.005.504-.602.725-1.16.734-.975.015-1.54-.263-1.992-.473l-.351 1.642c.453.208 1.289.39 2.156.398 2.037 0 3.37-1.006 3.377-2.564m5.061 2.447H24l-1.565-7.496h-1.656a.883.883 0 00-.826.55l-2.909 6.946h2.036l.405-1.12h2.488zm-2.163-2.656l1.02-2.815.588 2.815zm-8.16-4.84l-1.603 7.496H8.34l1.605-7.496z"/>
  </symbol>
  <symbol id="icon-buymeacoffee" viewBox="0 0 24 24">
    <path d="M20.216 6.415l-.132-.666c-.119-.598-.388-1.163-1.001-1.379-.197-.069-.42-.098-.57-.241-.152-.143-.196-.366-.231-.572-.065-.378-.125-.756-.192-1.133-.057-.325-.102-.69-.25-.987-.195-.4-.597-.634-.996-.788a5.723 5.723 0 00-.626-.194c-1-.263-2.05-.36-3.077-.416a25.834 25.834 0 00-3.7.062c-.915.083-1.88.184-2.75.5-.318.116-.646.256-.888.501-.297.302-.393.77-.177 1.146.154.267.415.456.692.58.36.162.737.284 1.123.366 1.075.238 2.189.331 3.287.37 1.218.05 2.437.01 3.65-.118.299-.033.598-.073.896-.119.352-.054.578-.513.474-.834-.124-.383-.457-.531-.834-.473-.466.074-.96.108-1.382.146-1.177.08-2.358.082-3.536.006a22.228 22.228 0 01-1.157-.107c-.086-.01-.18-.025-.258-.036-.243-.036-.484-.08-.724-.13-.111-.027-.111-.185 0-.212h.005c.277-.06.557-.108.838-.147h.002c.131-.009.263-.032.394-.048a25.076 25.076 0 013.426-.12c.674.019 1.347.067 2.017.144l.228.031c.267.04.533.088.798.145.392.085.895.113 1.07.542.055.137.08.288.111.431l.319 1.484a.237.237 0 01-.199.284h-.003c-.037.006-.075.01-.112.015a36.704 36.704 0 01-4.743.295 37.059 37.059 0 01-4.699-.304c-.14-.017-.293-.042-.417-.06-.326-.048-.649-.108-.973-.161-.393-.065-.768-.032-1.123.161-.29.16-.527.404-.675.701-.154.316-.199.66-.267 1-.069.34-.176.707-.135 1.056.087.753.613 1.365 1.37 1.502a39.69 39.69 0 0011.343.376.483.483 0 01.535.53l-.071.697-1.018 9.907c-.041.41-.047.832-.125 1.237-.122.637-.553 1.028-1.182 1.171-.577.131-1.165.2-1.756.205-.656.004-1.31-.025-1.966-.022-.699.004-1.556-.06-2.095-.58-.475-.458-.54-1.174-.605-1.793l-.731-7.013-.322-3.094c-.037-.351-.286-.695-.678-.678-.336.015-.718.3-.678.679l.228 2.185.949 9.112c.147 1.344 1.174 2.068 2.446 2.272.742.12 1.503.144 2.257.156.966.016 1.942.053 2.892-.122 1.408-.258 2.465-1.198 2.616-2.657.34-3.332.683-6.663 1.024-9.995l.215-2.087a.484.484 0 01.39-.426c.402-.078.787-.212 1.074-.518.455-.488.546-1.124.385-1.766zm-1.478.772c-.145.137-.363.201-.578.233-2.416.359-4.866.54-7.308.46-1.748-.06-3.477-.254-5.207-.498-.17-.024-.353-.055-.47-.18-.22-.236-.111-.71-.054-.995.052-.26.152-.609.463-.646.484-.057 1.046.148 1.526.22.577.088 1.156.159 1.737.212 2.48.226 5.002.19 7.472-.14.45-.06.899-.13 1.345-.21.399-.072.84-.206 1.08.206.166.281.188.657.162.974a.544.544 0 01-.169.364zm-6.159 3.9c-.862.37-1.84.788-3.109.788a5.884 5.884 0 01-1.569-.217l.877 9.004c.065.78.717 1.38 1.5 1.38 0 0 1.243.065 1.658.065.447 0 1.786-.065 1.786-.065.783 0 1.434-.6 1.499-1.38l.94-9.95a3.996 3.996 0 00-1.322-.238c-.826 0-1.491.284-2.26.613z"/>
  </symbol>
  <symbol id="icon-doge" viewBox="0 0 24 24">
    <path d="M12.288 7.908h-1.715v3.38h2.697v1.415h-2.697v3.38h1.799c.462 0 3.794.052 3.789-3.933-.005-3.984-3.232-4.242-3.873-4.242zM12 0C5.373 0 0 5.373 0 12s5.373 12 12 12 12-5.373 12-12S18.627 0 12 0zm.472 18.481H8.126v-5.778H6.594v-1.415h1.532V5.511h3.73c.882 0 6.727-.183 6.727 6.594-.001 6.888-6.111 6.376-6.111 6.376z"/>
  </symbol>
  <symbol id="icon-donorbox" viewBox="0 0 24 24">
    <path d="M6 1.807L0 5.629l6 3.822 6.001-3.822L6 1.807zM18 1.807l-6 3.822 6 3.822 6-3.822-6-3.822zM0 13.274l6 3.822 6.001-3.822L6 9.452l-6 3.822zM18 9.452l-6 3.822 6 3.822 6-3.822-6-3.822zM6 18.371l6.001 3.822 6-3.822-6-3.822L6 18.371z"/>
  </symbol>
</svg>
